<svg width="17" height="17" viewBox="0 0 17 17" fill="none" xmlns="http://www.w3.org/2000/svg">
<path d="M5.2082 14.1906C4.57796 14.1906 4.0675 14.7011 4.0675 15.3313C4.0675 15.9616 4.57796 16.472 5.2082 16.472C5.83844 16.472 6.3489 15.9616 6.3489 15.3313C6.3489 14.7011 5.83844 14.1906 5.2082 14.1906ZM13.1931 14.1906C12.5629 14.1906 12.0524 14.7011 12.0524 15.3313C12.0524 15.9616 12.5629 16.472 13.1931 16.472C13.8233 16.472 14.3338 15.9616 14.3338 15.3313C14.3338 14.7011 13.8233 14.1906 13.1931 14.1906ZM14.3247 13.6203H5.06048C4.2386 13.6203 3.51597 12.9701 3.41559 12.1402L2.44827 5.33025L1.89788 2.14769C1.86366 1.86993 1.61043 1.64293 1.3629 1.64293H0.636269C0.321435 1.64293 0.065918 1.38741 0.065918 1.07258C0.065918 0.757745 0.321435 0.502228 0.636269 0.502228H1.3629C2.19504 0.502228 2.92566 1.15243 3.02661 1.98229L3.57586 5.15287L4.54716 11.9919C4.5791 12.2566 4.81865 12.4796 5.06048 12.4796H14.3247C14.6401 12.4796 14.895 12.7345 14.895 13.0499C14.895 13.3653 14.6401 13.6203 14.3247 13.6203ZM5.77342 11.3389C5.47741 11.3389 5.22702 11.1108 5.20535 10.8102C5.18196 10.4959 5.41809 10.2227 5.73178 10.1999L13.4692 9.62955C13.7532 9.62784 13.9927 9.40483 14.0241 9.15103L14.9224 4.01103C14.9452 3.81939 14.8922 3.6095 14.7775 3.47946C14.704 3.39619 14.6116 3.35398 14.5038 3.35398H4.62872C4.31389 3.35398 4.05837 3.09846 4.05837 2.78363C4.05837 2.4688 4.31389 2.21328 4.62872 2.21328H14.5038C14.9395 2.21328 15.3399 2.39408 15.6314 2.72317C15.9644 3.09903 16.1173 3.62889 16.0506 4.17814L15.1517 9.31871C15.0547 10.1183 14.3327 10.7685 13.5108 10.7685L5.81562 11.3372C5.80137 11.3383 5.78711 11.3389 5.77342 11.3389Z" fill="black"/>
</svg>
