<svg width="17" height="17" viewBox="0 0 17 17" fill="none" xmlns="http://www.w3.org/2000/svg">
<path d="M13.857 13.0615L15.8033 15.0082C15.8855 15.0875 15.951 15.1824 15.9961 15.2874C16.0412 15.3923 16.0649 15.5052 16.0659 15.6194C16.0669 15.7337 16.0451 15.8469 16.0019 15.9527C15.9586 16.0584 15.8947 16.1544 15.814 16.2352C15.7332 16.316 15.6371 16.3798 15.5314 16.4231C15.4257 16.4663 15.3124 16.4881 15.1982 16.4871C15.084 16.4861 14.9711 16.4624 14.8662 16.4173C14.7612 16.3722 14.6663 16.3067 14.5869 16.2245L12.6403 14.2783C11.2694 15.3766 9.56454 15.9739 7.80794 15.9712C3.53219 15.9712 0.065918 12.5049 0.065918 8.22916C0.065918 3.95341 3.53219 0.487137 7.80794 0.487137C12.0837 0.487137 15.55 3.95341 15.55 8.22916C15.55 10.0571 14.9164 11.7372 13.857 13.0615ZM7.80794 14.2507C11.1336 14.2507 13.8295 11.5548 13.8295 8.22916C13.8295 4.90353 11.1336 2.20759 7.80794 2.20759C4.48231 2.20759 1.78637 4.90353 1.78637 8.22916C1.78637 11.5548 4.48231 14.2507 7.80794 14.2507ZM3.45821 6.36505C3.93819 5.24889 4.82775 4.35917 5.94383 3.879V3.87986C6.15498 3.7934 6.39183 3.79435 6.60228 3.88251C6.81273 3.97068 6.97953 4.13883 7.066 4.34998C7.15247 4.56113 7.15151 4.79798 7.06335 5.00842C6.97519 5.21887 6.80703 5.38567 6.59589 5.47214C5.90118 5.77863 5.34731 6.33542 5.04447 7.03173C5.0007 7.13588 4.93683 7.2304 4.85653 7.30987C4.77623 7.38935 4.68106 7.45223 4.57646 7.49492C4.47186 7.53762 4.35987 7.55929 4.2469 7.55871C4.13392 7.55812 4.02216 7.53529 3.918 7.49152C3.81385 7.44774 3.71934 7.38388 3.63986 7.30358C3.56039 7.22328 3.49751 7.12811 3.45481 7.02351C3.41212 6.91891 3.39044 6.80692 3.39103 6.69394C3.39161 6.58097 3.41444 6.46921 3.45821 6.36505Z" fill="black"/>
</svg>
