<svg width="195" height="39" viewBox="0 0 195 39" fill="none" xmlns="http://www.w3.org/2000/svg">
<path d="M0.0658569 15.4186C0.0658569 5.39651 6.01911 0 15.9127 0C24.4358 0 29.661 3.94031 31.2457 10.7074H24.65C23.4079 7.19535 20.4955 6.42443 15.9127 6.42443C9.31703 6.42443 6.49027 8.78006 6.49027 15.4186C6.49027 22.2285 9.61683 24.4128 15.9127 24.4128C20.7096 24.4128 23.4935 23.599 24.6928 20.1299H31.2457C29.6181 27.1111 24.136 30.8372 15.9127 30.8372C5.63364 30.8372 0.0658569 25.0553 0.0658569 15.4186Z" fill="#2F2E2E"/>
<path d="M32.5606 18.6303C32.5606 10.664 36.6294 6.42386 44.8955 6.42386C49.1356 6.42386 51.5769 7.53744 52.9474 9.59326V6.85217H58.9436V30.4084H52.9474V27.6245C51.5341 29.7231 49.0928 30.8367 44.8955 30.8367C36.3296 30.8367 32.5606 26.2539 32.5606 18.6303ZM45.7521 25.0547C50.292 25.0547 52.9474 22.8276 52.9474 18.6303C52.9474 14.6043 50.4205 12.2059 45.7521 12.2059C41.2122 12.2059 38.5567 14.433 38.5567 18.6303C38.5567 22.6563 41.0837 25.0547 45.7521 25.0547Z" fill="#2F2E2E"/>
<path d="M61.377 6.85213H67.3731V10.9209C69.1292 8.00852 72.0844 6.85213 76.1961 6.85213H78.8515V11.9917H76.1961C70.6711 11.9917 67.3731 15.5037 67.3731 19.187V30.4083H61.377V6.85213Z" fill="#2F2E2E"/>
<path d="M91.4888 21.843H93.4588C94.6583 27.2395 98.7699 28.6957 105.28 28.6957C112.989 28.6957 116.972 27.0253 116.972 22.2284C116.972 13.063 92.8164 19.9585 92.8164 8.43737C92.8164 2.6554 98.4699 0.0428314 104.338 0.0428314C110.462 0.0428314 116.929 1.54181 117.658 8.99412H115.688C115.045 3.34067 110.077 2.18425 104.338 2.18425C98.984 2.18425 94.744 4.19723 94.744 8.43737C94.744 17.6029 118.9 10.7073 118.9 22.2284C118.9 28.61 113.46 30.8372 105.28 30.8372C98.2132 30.8372 92.8164 28.9098 91.4888 21.843Z" fill="black"/>
<path d="M131.598 8.35172C125.431 8.35172 122.989 11.0071 122.989 17.56V30.4089H120.848V0.428253H122.989V10.793C124.446 7.92348 127.187 6.42442 131.598 6.42442C138.536 6.42442 141.92 9.20835 141.92 17.56V30.4089H139.779V17.56C139.779 11.2642 137.466 8.35172 131.598 8.35172Z" fill="black"/>
<path d="M155.928 6.42386C163.809 6.42386 168.049 11.0066 168.049 18.6302C168.049 26.5965 163.509 30.8366 155.928 30.8366C148.09 30.8366 143.85 26.2539 143.85 18.6302C143.85 10.664 148.347 6.42386 155.928 6.42386ZM165.907 18.6302C165.907 11.906 162.824 8.56535 155.928 8.56535C149.247 8.56535 145.992 11.649 145.992 18.6302C145.992 25.3544 149.075 28.6952 155.928 28.6952C162.609 28.6952 165.907 25.6115 165.907 18.6302Z" fill="black"/>
<path d="M172.005 25.4401V38.9743H169.863V6.85209H172.005V11.8204C173.632 8.35115 176.845 6.42386 181.984 6.42386C189.565 6.42386 194.062 10.664 194.062 18.6302C194.062 26.2539 189.822 30.8366 181.984 30.8366C176.973 30.8366 173.675 28.995 172.005 25.4401ZM181.984 28.6952C188.837 28.6952 191.921 25.3544 191.921 18.6302C191.921 11.649 188.665 8.56535 181.984 8.56535C175.088 8.56535 172.005 11.906 172.005 18.6302C172.005 25.6115 175.303 28.6952 181.984 28.6952Z" fill="black"/>
</svg>
